<svg width="62" height="45" viewBox="0 0 62 45" fill="none" xmlns="http://www.w3.org/2000/svg">
<path fill-rule="evenodd" clip-rule="evenodd" d="M24.335 44.9084C21.0072 44.9084 17.7934 43.5161 15.5411 41.1045L1.395 25.9636C-0.465 23.9623 -0.465 20.954 1.395 18.9526L15.5411 3.82413C17.7934 1.4001 20.9946 0.0202637 24.335 0.0202637H51.7795C57.3721 0.0202637 61.9272 4.4954 61.9272 9.98988V34.9388C61.9272 40.4332 57.3721 44.9084 51.7795 44.9084H24.335ZM17.8313 5.87524L3.6852 21.0161C2.91337 21.8366 2.91337 23.0797 3.6852 23.9001L17.8187 39.041C19.4889 40.831 21.8677 41.8504 24.335 41.8504H51.7921C55.6766 41.8504 58.8399 38.7426 58.8399 34.9263V9.98988C58.8399 6.17358 55.6766 3.06584 51.7921 3.06584H24.3477C21.8803 3.06584 19.5015 4.08518 17.8313 5.87524Z" fill="#211F1F"/>
<path d="M28.5232 30.5506C28.8269 30.8489 29.2191 30.9981 29.624 30.9981C30.0289 30.9981 30.4211 30.8489 30.7248 30.5506L36.773 24.6086L42.8211 30.5506C43.1248 30.8489 43.5171 30.9981 43.922 30.9981C44.3269 30.9981 44.7191 30.8489 45.0228 30.5506C45.6301 29.9539 45.6301 28.9967 45.0228 28.4L38.962 22.458L45.0101 16.516C45.6175 15.9193 45.6175 14.9622 45.0101 14.3655C44.4028 13.7688 43.4285 13.7688 42.8211 14.3655L36.773 20.3075L30.7248 14.3655C30.1175 13.7688 29.1432 13.7688 28.5358 14.3655C27.9285 14.9622 27.9285 15.9193 28.5358 16.516L34.584 22.458L28.5358 28.4C27.9285 28.9967 27.9285 29.9538 28.5232 30.5506Z" fill="#211F1F"/>
</svg>
