<svg width="12" height="15" viewBox="0 0 12 15" fill="none" xmlns="http://www.w3.org/2000/svg">
<path fill-rule="evenodd" clip-rule="evenodd" d="M7.98178 1.795H10.2865C11.2191 1.795 11.9778 2.56295 11.9778 3.50674V3.59457C11.9778 4.31575 11.534 4.93304 10.9089 5.1846V13.2706C10.9089 14.2143 10.1502 14.9823 9.21751 14.9823H2.76525C1.83263 14.9823 1.07383 14.2143 1.07383 13.2706V5.18457C0.448668 4.93304 0.00488281 4.31575 0.00488281 3.59453V3.50671C0.00488281 2.56295 0.763584 1.795 1.69627 1.795H4.00107C4.11603 0.78618 4.96411 0 5.99135 0C7.01862 0 7.86682 0.786211 7.98178 1.795ZM7.17118 1.795C7.06328 1.23553 6.5756 0.81177 5.99135 0.81177C5.40731 0.81177 4.9196 1.2355 4.81173 1.795H7.17118ZM10.1067 13.2706C10.1067 13.7668 9.7077 14.1705 9.21748 14.1705H2.76522C2.275 14.1705 1.87602 13.7667 1.87602 13.2706V5.30624H10.1067V13.2706ZM10.2864 4.4945C10.7766 4.4945 11.1756 4.09075 11.1756 3.59453H11.1757V3.50671C11.1757 3.0105 10.7767 2.60674 10.2865 2.60674H1.69627C1.20605 2.60674 0.807072 3.0105 0.807072 3.50671V3.59453C0.807072 4.09075 1.20605 4.4945 1.69627 4.4945H10.2864Z" fill="#343232"/>
<path d="M3.84055 13.1324C4.06207 13.1324 4.24164 12.9506 4.24164 12.7266V8.15657C4.24164 7.93247 4.06204 7.75067 3.84055 7.75067C3.61905 7.75067 3.43945 7.93247 3.43945 8.15657V12.7266C3.43942 12.9507 3.61902 13.1324 3.84055 13.1324Z" fill="#343232"/>
<path d="M5.99094 13.1324C6.21246 13.1324 6.39206 12.9506 6.39206 12.7266V8.15657C6.39206 7.93247 6.2124 7.75067 5.99094 7.75067C5.76944 7.75067 5.58984 7.93247 5.58984 8.15657V12.7266C5.58984 12.9507 5.76941 13.1324 5.99094 13.1324Z" fill="#343232"/>
<path d="M8.14136 13.1324C8.36285 13.1324 8.54242 12.9506 8.54242 12.7266V8.15657C8.54242 7.93247 8.36282 7.75067 8.14136 7.75067C7.9198 7.75067 7.74023 7.93247 7.74023 8.15657V12.7266C7.7402 12.9507 7.91987 13.1324 8.14136 13.1324Z" fill="#343232"/>
</svg>
