<svg width="17" height="19" viewBox="0 0 17 19" fill="none" xmlns="http://www.w3.org/2000/svg">
<path d="M12.5522 2.87488C12.1102 2.63254 11.5573 2.79772 11.3172 3.24391C11.0771 3.69004 11.2408 4.24821 11.6827 4.49062C13.839 5.67309 15.1786 7.94482 15.1786 10.4194C15.1786 14.1369 12.1826 17.1613 8.5 17.1613C4.81744 17.1613 1.82143 14.1369 1.82143 10.4194C1.82143 7.9556 3.15235 5.6886 5.29477 4.50293C5.73586 4.25888 5.89736 3.70003 5.6556 3.25482C5.41377 2.80961 4.86018 2.64651 4.41921 2.89057C1.69338 4.39911 0 7.28398 0 10.4194C0 15.1507 3.8131 19 8.5 19C13.1869 19 17 15.1507 17 10.4194C17 7.27025 15.2957 4.37937 12.5522 2.87488Z" fill="#211F1F"/>
<path d="M8.49958 7.96774C9.00254 7.96774 9.4103 7.55612 9.4103 7.04839V0.919355C9.4103 0.411626 9.00254 0 8.49958 0C7.99662 0 7.58887 0.411626 7.58887 0.919355V7.04839C7.58887 7.55612 7.99662 7.96774 8.49958 7.96774Z" fill="#211F1F"/>
</svg>
