<svg width="23" height="18" viewBox="0 0 23 18" fill="none" xmlns="http://www.w3.org/2000/svg">
<path fill-rule="evenodd" clip-rule="evenodd" d="M8.32055 0.613636V6.15133C8.32055 6.49058 8.57866 6.76497 8.89778 6.76497H10.9251V8.43126H3.1818C2.86268 8.43126 2.60457 8.70565 2.60457 9.0449V11.235H0.577229C0.258111 11.235 0 11.5094 0 11.8487V17.3864C0 17.7256 0.258111 18 0.577229 18H5.78637C6.10549 18 6.3636 17.7256 6.3636 17.3864V11.8487C6.3636 11.5094 6.10549 11.235 5.78637 11.235H3.75434V9.65355H10.9204V11.235H8.89308C8.57396 11.235 8.31585 11.5094 8.31585 11.8487V17.3864C8.31585 17.7256 8.57396 18 8.89308 18H14.1022C14.4213 18 14.6795 17.7256 14.6795 17.3864V11.8487C14.6795 11.5094 14.4213 11.235 14.1022 11.235H12.0749V9.65355H19.241V11.235H17.2136C16.8945 11.235 16.6364 11.5094 16.6364 11.8487V17.3864C16.6364 17.7256 16.8945 18 17.2136 18H22.4228C22.7419 18 23 17.7256 23 17.3864V11.8487C23 11.5094 22.7419 11.235 22.4228 11.235H20.3954V9.0449C20.3954 8.70565 20.1373 8.43126 19.8182 8.43126H12.0749V6.76497H14.1022C14.4213 6.76497 14.6795 6.49058 14.6795 6.15133V0.613636C14.6795 0.27439 14.4213 0 14.1022 0H8.89308C8.57866 0 8.32055 0.27439 8.32055 0.613636ZM5.20914 16.7677H1.15446V12.4523H5.20914V16.7677ZM9.46562 16.7677H13.525V12.4523H9.46562V16.7677ZM21.8408 16.7677H17.7862V12.4523H21.8455V16.7677H21.8408ZM13.5297 1.22228H9.47031V5.53769H13.5297V1.22228Z" fill="#211F1F"/>
</svg>
