<svg width="17" height="16" viewBox="0 0 17 16" fill="none" xmlns="http://www.w3.org/2000/svg">
<path fill-rule="evenodd" clip-rule="evenodd" d="M13.0089 4.48344C13.0089 6.95972 10.9732 8.96828 8.46345 8.96828C5.95366 8.96828 3.91797 6.94598 3.91797 4.48344C3.91797 2.02089 5.95369 0.0123291 8.46345 0.0123291C10.9732 0.0123291 13.0089 2.00715 13.0089 4.48344ZM11.8098 4.48344C11.8098 2.66747 10.3039 1.1817 8.46345 1.1817C6.62293 1.1817 5.11707 2.66744 5.11707 4.48341C5.11707 6.29938 6.62296 7.78515 8.46345 7.78515C10.3039 7.78515 11.8098 6.29941 11.8098 4.48344Z" fill="#211F1F"/>
<path fill-rule="evenodd" clip-rule="evenodd" d="M16.3833 15.9707H0.599551C0.264917 15.9707 0 15.7093 0 15.3791C0 12.27 2.56555 9.75244 5.70278 9.75244H11.28C14.4312 9.75244 16.9828 12.2838 16.9828 15.3791C16.9828 15.7093 16.7179 15.9707 16.3833 15.9707ZM11.28 10.9355H5.70278C3.4161 10.9355 1.53374 12.6277 1.24094 14.7876H15.7419C15.4491 12.6139 13.5667 10.9355 11.28 10.9355Z" fill="#211F1F"/>
</svg>
