<svg width="56" height="39" viewBox="0 0 56 39" fill="none" xmlns="http://www.w3.org/2000/svg">
<path d="M42.0091 11.3423C41.9329 11.3423 3.94082 11.3423 3.94082 11.3423L11.9452 2.43874C12.4643 1.86133 12.4134 0.9757 11.8316 0.460575C11.25 -0.0544415 10.3574 -0.00417486 9.83829 0.57335L0.823489 10.6007C-0.274569 11.8225 -0.27446 13.6646 0.823598 14.886L9.8384 24.9135C10.1174 25.2238 10.504 25.3818 10.8922 25.3818C11.2267 25.3818 11.5624 25.2645 11.8317 25.0262C12.4135 24.5111 12.4643 23.6255 11.9453 23.0481L3.94093 14.1444C3.94093 14.1444 41.9329 14.1444 42.0093 14.1444C48.1068 14.1444 53.0673 19.0675 53.0673 25.1185C53.0673 31.1696 48.1067 36.0927 42.0093 36.0927H35.2871C34.5073 36.0927 33.8753 36.7201 33.8753 37.4938C33.8753 38.2675 34.5073 38.8949 35.2871 38.8949H42.0093C49.6637 38.8949 55.8909 32.7149 55.8909 25.1185C55.8908 17.5223 49.6636 11.3423 42.0091 11.3423Z" fill="#211F1F"/>
</svg>
