<svg width="18" height="20" viewBox="0 0 18 20" fill="none" xmlns="http://www.w3.org/2000/svg">
<path fill-rule="evenodd" clip-rule="evenodd" d="M15.7736 13.1568H5.12061C4.71134 13.1568 4.32591 13.0418 4.00008 12.8447V14.3478C4.00008 14.9843 4.50074 15.5059 5.12061 15.5059H15.2531C16.4451 15.5059 17.4186 16.5121 17.4186 17.7441C17.4186 18.9761 16.4451 19.9823 15.2531 19.9823C14.061 19.9823 13.0875 18.9802 13.0875 17.7441C13.0875 17.3334 13.1948 16.9474 13.3855 16.6147H8.56167C8.7524 16.9433 8.85969 17.3334 8.85969 17.7441C8.85969 18.9761 7.88618 19.9823 6.69412 19.9823C5.50207 19.9823 4.52856 18.9802 4.52856 17.7441C4.52856 17.3252 4.64379 16.931 4.83849 16.5942C3.76167 16.4505 2.92724 15.4977 2.92724 14.3478V10.8981V8.16709V5.11165V4.7133V2.19995L0.32856 1.06648C0.0543874 0.947382 -0.0727649 0.622947 0.0424669 0.339579C0.157699 0.0562115 0.471606 -0.0752053 0.745778 0.0438912L3.67425 1.31699C3.6822 1.3211 3.69114 1.32521 3.70008 1.32931C3.70902 1.33342 3.71796 1.33753 3.72591 1.34163C3.7279 1.34369 3.72988 1.34471 3.73187 1.34574C3.73386 1.34677 3.73584 1.34779 3.73783 1.34985C3.74578 1.35395 3.7577 1.36217 3.76962 1.37038C3.77359 1.37449 3.77757 1.37757 3.78154 1.38065C3.78551 1.38373 3.78949 1.38681 3.79346 1.39091C3.79545 1.39297 3.79843 1.39502 3.80141 1.39707C3.80439 1.39913 3.80737 1.40118 3.80935 1.40323C3.82127 1.41145 3.82922 1.41966 3.83717 1.42787L3.84909 1.4402L3.87293 1.46484L3.88485 1.47716C3.88684 1.48126 3.88982 1.48537 3.8928 1.48948C3.89578 1.49358 3.89876 1.49769 3.90074 1.5018C3.90273 1.5059 3.90472 1.50898 3.90671 1.51206C3.90869 1.51514 3.91068 1.51822 3.91267 1.52233C3.91465 1.52644 3.91664 1.52952 3.91863 1.5326C3.92061 1.53568 3.9226 1.53876 3.92459 1.54286C3.93253 1.55108 3.93651 1.55929 3.94048 1.56751C3.94247 1.56956 3.94346 1.57264 3.94445 1.57572C3.94545 1.5788 3.94644 1.58188 3.94843 1.58393C3.95637 1.59625 3.96035 1.60447 3.96432 1.61679C3.96432 1.61884 3.96531 1.62192 3.96631 1.625C3.9673 1.62808 3.96829 1.63116 3.96829 1.63321L3.98022 1.67017C3.98022 1.67428 3.98121 1.67736 3.9822 1.68044L3.9822 1.68044L3.9822 1.68044C3.9832 1.68352 3.98419 1.6866 3.98419 1.69071C3.98617 1.69687 3.98717 1.702 3.98816 1.70713L3.98816 1.70714L3.98816 1.70714C3.98916 1.71227 3.99015 1.7174 3.99214 1.72356C3.99214 1.72972 3.99313 1.73588 3.99412 1.74204L3.99412 1.74204L3.99412 1.74205C3.99512 1.74821 3.99611 1.75436 3.99611 1.76052C4.00008 1.76874 4.00008 1.77284 4.00008 1.77695C4.00406 1.79338 4.00406 1.81391 4.00406 1.83445V3.78106L17.506 5.70714C17.5107 5.70714 17.514 5.70854 17.5167 5.70971C17.5186 5.71054 17.5203 5.71124 17.5219 5.71124C17.5339 5.71124 17.5418 5.71124 17.5537 5.71535C17.5545 5.71535 17.5554 5.7155 17.5564 5.71575L17.5604 5.71688C17.5643 5.71805 17.5689 5.71946 17.5736 5.71946C17.5815 5.71946 17.5935 5.72356 17.6014 5.72767C17.6054 5.72972 17.6094 5.73075 17.6133 5.73178C17.6173 5.7328 17.6213 5.73383 17.6252 5.73588L17.6491 5.7482L17.6729 5.76052L17.6968 5.77284C17.7047 5.78106 17.7127 5.78516 17.7206 5.78927C17.7246 5.79132 17.7276 5.79337 17.7305 5.79542L17.7305 5.79543C17.7335 5.79748 17.7365 5.79954 17.7405 5.80159C17.7445 5.80365 17.7484 5.80673 17.7524 5.8098C17.7564 5.81288 17.7603 5.81596 17.7643 5.81802C17.7683 5.82007 17.7713 5.82315 17.7743 5.82623C17.7772 5.82931 17.7802 5.83239 17.7842 5.83445L17.8041 5.85498C17.8053 5.85622 17.8068 5.85746 17.8085 5.85881L17.8085 5.85882C17.8125 5.86195 17.8172 5.86568 17.82 5.87141C17.8219 5.87551 17.8249 5.87859 17.8279 5.88167C17.8309 5.88475 17.8339 5.88783 17.8358 5.89194C17.8378 5.89605 17.8408 5.89913 17.8438 5.90221C17.8468 5.90529 17.8498 5.90837 17.8517 5.91247C17.8597 5.92069 17.8637 5.92479 17.8676 5.93301C17.8686 5.93506 17.8699 5.9371 17.8712 5.93915C17.8726 5.94121 17.8741 5.94327 17.8756 5.94533C17.8786 5.94944 17.8815 5.95354 17.8835 5.95765C17.8855 5.96176 17.8875 5.96484 17.8895 5.96792C17.8915 5.971 17.8935 5.97408 17.8954 5.97818L17.9074 6.00282C17.9113 6.00693 17.9153 6.01514 17.9193 6.02336C17.9233 6.03568 17.9272 6.04389 17.9312 6.0521C17.9322 6.05409 17.9329 6.05608 17.9335 6.05807C17.9342 6.06019 17.9347 6.06231 17.9352 6.06443C17.9362 6.06853 17.9372 6.07264 17.9392 6.07675C17.9411 6.08085 17.9421 6.08496 17.9431 6.08907C17.9441 6.09317 17.9451 6.09728 17.9471 6.10139C17.9488 6.10679 17.9498 6.1114 17.9507 6.11557C17.9518 6.12091 17.9528 6.12552 17.955 6.13013C17.955 6.13423 17.956 6.13833 17.957 6.14243L17.957 6.14245C17.958 6.14656 17.959 6.15067 17.959 6.15477C17.959 6.15888 17.96 6.16401 17.961 6.16915C17.962 6.17428 17.963 6.17941 17.963 6.18352C17.967 6.19174 17.967 6.19995 17.967 6.20816V6.24102V6.25744V10.8899C17.967 12.1383 16.9815 13.1568 15.7736 13.1568ZM6.6981 18.8694C7.2981 18.8694 7.79081 18.3642 7.79081 17.74C7.79081 17.1158 7.2981 16.6106 6.6981 16.6106C6.0981 16.6106 5.60538 17.1199 5.60538 17.74C5.60538 18.3601 6.0981 18.8694 6.6981 18.8694ZM16.3498 17.74C16.3498 18.3642 15.857 18.8694 15.257 18.8694C14.657 18.8694 14.1643 18.3601 14.1643 17.74C14.1643 17.1199 14.657 16.6106 15.257 16.6106C15.857 16.6106 16.3498 17.1158 16.3498 17.74ZM5.12061 12.048H15.7736C16.3895 12.048 16.8941 11.5305 16.8941 10.8858V6.73383L4.00008 4.8981V5.10344V8.15888V10.8899C4.00008 11.5264 4.50075 12.048 5.12061 12.048Z" fill="white"/>
</svg>
