<svg width="44" height="54" viewBox="0 0 44 54" fill="none" xmlns="http://www.w3.org/2000/svg">
<path fill-rule="evenodd" clip-rule="evenodd" d="M10.6725 22.0417C10.6725 15.8246 15.7614 10.7559 22.028 10.7559C28.2947 10.7559 33.3836 15.8356 33.3836 22.0528C33.3836 28.27 28.2947 33.3387 22.028 33.3387C15.7614 33.3387 10.6725 28.2589 10.6725 22.0417ZM13.3947 22.0528C13.3947 26.7792 17.2614 30.6332 22.028 30.6332C26.7947 30.6332 30.6614 26.7792 30.6614 22.0528C30.6614 17.3264 26.7836 13.4724 22.028 13.4724C17.2725 13.4724 13.3947 17.3264 13.3947 22.0528Z" fill="#211F1F"/>
<path fill-rule="evenodd" clip-rule="evenodd" d="M21.2502 0.0110429C21.5058 0 21.7724 0 22.028 0C34.128 0 43.9724 9.78405 43.9947 21.7988C43.9947 23.1902 43.8613 24.5816 43.5947 25.9399C43.5613 26.1497 43.5169 26.3706 43.4502 26.6356C43.1169 28.1153 42.6169 29.573 41.9724 30.9534C39.728 36.2209 34.7835 44.4147 24.0613 53.2601C23.4947 53.7239 22.7835 53.9779 22.0502 53.9779C21.3169 53.9779 20.6058 53.7239 20.0391 53.2601C9.30577 44.4037 4.36132 36.2209 2.10576 30.9092C1.47243 29.562 0.972431 28.1153 0.639098 26.6245C0.516876 26.1497 0.483543 25.8957 0.483543 25.8957C0.0946537 23.8859 -0.00534634 21.7767 0.194654 19.6785C1.2391 8.8454 10.2947 0.386503 21.2502 0.0110429ZM40.7835 26.0282C40.8613 25.6859 40.8947 25.4982 40.8947 25.4761C41.128 24.2393 41.2502 23.0245 41.2502 21.8098C41.2502 11.0429 32.2502 2.3411 21.3502 2.71656C11.7502 3.04785 3.82799 10.4577 2.90576 19.9436C2.72799 21.7767 2.81688 23.6319 3.16132 25.4319C3.16132 25.4429 3.1641 25.454 3.16688 25.465C3.16965 25.4761 3.17243 25.4871 3.17243 25.4982C3.17388 25.5053 3.1757 25.5146 3.17792 25.5259C3.19278 25.6012 3.22555 25.7674 3.28354 26.0172C3.58354 27.3313 4.01688 28.6012 4.58354 29.816C6.7391 34.8847 11.4613 42.6699 21.7613 51.173C21.8613 51.2503 21.9724 51.2724 22.0391 51.2724C22.1169 51.2724 22.2169 51.2503 22.3169 51.173C32.6169 42.681 37.328 34.8957 39.4724 29.8601C40.0502 28.6012 40.4835 27.3313 40.7835 26.0282Z" fill="#211F1F"/>
</svg>
