<svg width="20" height="18" viewBox="0 0 20 18" fill="none" xmlns="http://www.w3.org/2000/svg">
<path fill-rule="evenodd" clip-rule="evenodd" d="M14.6875 0.0331421C16.1859 0.0331421 17.5543 0.658781 18.5408 1.79484C19.4818 2.87861 20 4.33003 20 5.88175C20 7.57086 19.3503 9.14186 17.9553 10.8258C16.7085 12.3309 14.9149 13.8822 12.838 15.6785L12.8308 15.6847C12.059 16.3523 11.261 17.0425 10.4115 17.7969L10.3859 17.8196C10.2755 17.9178 10.1377 17.9669 10 17.9669C9.86227 17.9669 9.72453 17.9178 9.61406 17.8196L9.58848 17.7969C8.73649 17.0403 7.93622 16.3481 7.16234 15.6788L7.16211 15.6786C5.08512 13.8822 3.29148 12.3308 2.04473 10.8258C0.649727 9.1419 0 7.57086 0 5.88175C0 4.33003 0.518242 2.87861 1.45918 1.79488C2.44566 0.658821 3.81414 0.0331421 5.3125 0.0331421C7.41984 0.0331421 8.75402 1.31059 9.50215 2.38226C9.69629 2.66035 9.86137 2.93919 10 3.20158C10.1386 2.93919 10.3038 2.66035 10.4979 2.38226C11.246 1.31059 12.5802 0.0331421 14.6875 0.0331421ZM10 16.583C10.724 15.9442 11.4107 15.3503 12.0779 14.7732C16.1428 11.2575 18.8281 8.9349 18.8281 5.88175C18.8281 4.61977 18.4139 3.44763 17.6616 2.58129C16.9008 1.70512 15.8446 1.22257 14.6875 1.22257C13.0809 1.22257 12.0423 2.22716 11.4541 3.06987C10.9264 3.82575 10.651 4.5877 10.5571 4.88018C10.4786 5.125 10.2537 5.29069 10 5.29069C9.74633 5.29069 9.52145 5.125 9.44289 4.88018C9.34898 4.5877 9.07363 3.82575 8.54594 3.06991C7.95766 2.22716 6.9191 1.22257 5.3125 1.22257C4.15543 1.22257 3.09922 1.70512 2.33836 2.58129C1.58613 3.44763 1.17188 4.61977 1.17188 5.88175C1.17188 8.9349 3.85723 11.2575 7.92203 14.7732C8.58934 15.3503 9.27602 15.9442 10 16.583Z" fill="#211F1F"/>
</svg>
