<svg width="17" height="13" viewBox="0 0 17 13" fill="none" xmlns="http://www.w3.org/2000/svg">
<path fill-rule="evenodd" clip-rule="evenodd" d="M2.07583 0.0264282H14.9031C16.0481 0.0264282 16.9789 0.963556 16.9754 2.11207V10.902C16.9754 12.0505 16.0446 12.9842 14.8996 12.9842H2.07583C0.930785 12.9842 0 12.0505 0 10.902V2.10854C0 0.960032 0.930785 0.0264282 2.07583 0.0264282ZM14.9031 12.0329C15.5248 12.0329 16.0306 11.5256 16.0306 10.902H16.0271V2.11207C16.0271 1.48849 15.5213 0.981171 14.8996 0.981171H2.07583C1.45413 0.981171 0.948347 1.48849 0.948347 2.11207V10.902C0.948347 11.5256 1.45413 12.0329 2.07583 12.0329H14.9031Z" fill="#1D1F1F"/>
<path d="M10.7065 6.39608L14.8582 2.66167C15.0514 2.48551 15.0689 2.18606 14.8933 1.98877C14.7177 1.795 14.4191 1.77738 14.2224 1.95354L8.49723 7.10774L7.38029 6.10719C7.37677 6.10367 7.37326 6.10015 7.37326 6.09663C7.34867 6.07196 7.32409 6.05083 7.29599 6.02969L2.75095 1.95001C2.55425 1.77386 2.2557 1.79148 2.08008 1.98877C1.90446 2.18606 1.92202 2.48551 2.11871 2.66167L6.31954 6.42779L2.13628 10.356C1.94661 10.5357 1.93607 10.8351 2.1152 11.0289C2.21004 11.1275 2.33648 11.1804 2.46293 11.1804C2.57884 11.1804 2.69475 11.1381 2.78607 11.0535L7.03256 7.06898L8.18462 8.10123C8.27595 8.18226 8.38834 8.22102 8.50074 8.22102C8.61314 8.22102 8.72905 8.17874 8.81686 8.09771L10.0005 7.03375L14.2224 11.0571C14.3138 11.1451 14.4332 11.1874 14.5491 11.1874C14.6755 11.1874 14.7985 11.1381 14.8933 11.0394C15.0724 10.8492 15.0654 10.5462 14.8757 10.3665L10.7065 6.39608Z" fill="#1D1F1F"/>
</svg>
