<svg width="14" height="20" viewBox="0 0 14 20" fill="none" xmlns="http://www.w3.org/2000/svg">
<path fill-rule="evenodd" clip-rule="evenodd" d="M0 7.03125C0 3.15422 3.1402 0 7 0C10.8598 0 14 3.15422 14 7.03125C14 8.30231 13.6586 9.54797 13.0126 10.6336L7.59764 19.7152C7.49315 19.8905 7.30524 19.9984 7.10181 20H7.09718C6.89551 20 6.70798 19.8953 6.60154 19.723L1.04491 10.7286C0.361239 9.61953 0 8.34117 0 7.03125ZM7.08836 18.2885L12.0115 10.032C12.549 9.12844 12.8372 8.09066 12.8372 7.03125C12.8372 3.80039 10.2165 1.16406 7 1.16406C3.7835 1.16406 1.15889 3.80039 1.15889 7.03125C1.15889 8.12305 1.46743 9.18805 2.03649 10.1112L7.08836 18.2885Z" fill="#1D1F1F"/>
<path fill-rule="evenodd" clip-rule="evenodd" d="M3.5 7.03125C3.5 5.09273 5.0701 3.51562 7 3.51562C8.9299 3.51562 10.5 5.09273 10.5 7.03125C10.5 8.93621 8.97956 10.5469 7 10.5469C5.04455 10.5469 3.5 8.95738 3.5 7.03125ZM4.65889 7.03125C4.65889 8.32684 5.70667 9.38281 7 9.38281C8.31382 9.38281 9.33722 8.30793 9.33722 7.03125C9.33722 5.73891 8.2866 4.67969 7 4.67969C5.7134 4.67969 4.65889 5.73891 4.65889 7.03125Z" fill="#1D1F1F"/>
</svg>
