<svg width="19" height="19" viewBox="0 0 19 19" fill="none" xmlns="http://www.w3.org/2000/svg">
<path fill-rule="evenodd" clip-rule="evenodd" d="M14.5458 10.6692C15.0752 10.6692 15.5748 10.8987 15.9889 11.328L18.333 13.6701C18.7642 14.0951 18.9905 14.6009 18.9905 15.128C18.9905 15.6508 18.7685 16.1609 18.3458 16.5987C18.1622 16.79 17.9743 16.9728 17.7907 17.147C17.7708 17.1662 17.7509 17.1853 17.7312 17.2044C17.484 17.4423 17.2491 17.6684 17.0435 17.9164C17.0414 17.9206 17.0382 17.9238 17.035 17.927C17.0318 17.9302 17.0286 17.9334 17.0265 17.9376C16.3775 18.639 15.5491 18.9918 14.5629 18.9918C14.4775 18.9918 14.3835 18.9875 14.2939 18.9833C12.8294 18.8898 11.5186 18.3414 10.5366 17.8781C7.96623 16.6412 5.71612 14.8857 3.846 12.6627C2.30465 10.8179 1.2714 9.09647 0.579711 7.23897C0.297913 6.48237 -0.0692779 5.32622 0.033194 4.08506C0.101509 3.31571 0.413194 2.65262 0.959711 2.10855L2.4114 0.650606L2.41994 0.642105C2.8469 0.234051 3.35072 0.0172729 3.87162 0.0172729C4.39252 0.0172729 4.8878 0.234051 5.30196 0.642105C5.57949 0.897139 5.84847 1.16917 6.10465 1.43271C6.23274 1.56873 6.36937 1.70475 6.50173 1.83651L7.66735 2.99692C8.56398 3.88953 8.56398 5.04568 7.66735 5.9383C7.60758 5.99781 7.5478 6.05838 7.48803 6.11895C7.42825 6.17952 7.36847 6.24009 7.3087 6.2996C7.27821 6.33036 7.24765 6.36124 7.21699 6.39221C6.92989 6.68225 6.63447 6.98069 6.31814 7.26873C6.57859 7.84255 6.93724 8.40788 7.47095 9.07946C8.57252 10.4269 9.72106 11.4683 10.9849 12.2674C11.1087 12.3439 11.2538 12.4161 11.4075 12.4927L11.4076 12.4927C11.4438 12.5114 11.4804 12.5301 11.5174 12.549C11.5896 12.5859 11.663 12.6234 11.7363 12.6627L13.0856 11.3238C13.5168 10.8945 14.0206 10.6692 14.5458 10.6692ZM17.0939 16.228C17.2411 16.0855 17.3807 15.9504 17.5175 15.8039C17.953 15.3533 17.953 14.907 17.5132 14.4734L15.1606 12.1314L15.1521 12.1229C15.0197 11.9783 14.802 11.8126 14.5372 11.8126C14.2683 11.8126 14.0377 11.9868 13.8925 12.1314L12.4323 13.5851C12.3597 13.6573 12.1377 13.8783 11.7833 13.8783C11.6424 13.8783 11.5058 13.8443 11.3606 13.7721C11.3521 13.7678 11.3435 13.7625 11.335 13.7572C11.3265 13.7519 11.3179 13.7466 11.3094 13.7423C11.1856 13.6658 11.0404 13.5936 10.8867 13.517C10.7159 13.432 10.5366 13.3428 10.3615 13.2323C8.99095 12.3694 7.74848 11.243 6.57005 9.79781L6.56578 9.79356C5.91679 8.9732 5.48982 8.28461 5.18668 7.55351L5.17387 7.51526C5.09701 7.27298 5.0287 6.91593 5.39589 6.55038C5.39865 6.54489 5.40319 6.54118 5.40835 6.53694C5.41119 6.53462 5.41421 6.53214 5.41724 6.52913C5.7887 6.19759 6.13027 5.85754 6.48892 5.49199C6.57132 5.4128 6.65182 5.33172 6.73295 5.25001C6.77374 5.20893 6.81469 5.16769 6.85612 5.12644C7.3087 4.67589 7.3087 4.25933 6.85612 3.80877L5.6905 2.64837C5.62271 2.57878 5.55493 2.51024 5.48767 2.44222C5.41935 2.37314 5.35157 2.3046 5.28488 2.23606C5.02443 1.96828 4.77679 1.7175 4.51634 1.47521L4.50353 1.46246C4.3669 1.32645 4.14915 1.16492 3.88016 1.16492C3.66241 1.16492 3.44039 1.27119 3.23117 1.46671L1.77522 2.91615C1.42083 3.26895 1.2287 3.68126 1.186 4.17857C1.12196 4.95642 1.26713 5.78103 1.66421 6.83942C2.30892 8.57365 3.28241 10.1889 4.73836 11.9358C6.50173 14.0314 8.62376 15.6848 11.0404 16.8495C11.9242 17.2703 13.1026 17.7634 14.3707 17.8441C14.4348 17.8484 14.5031 17.8484 14.5671 17.8484C15.2332 17.8484 15.7413 17.6316 16.1725 17.1725C16.4372 16.8622 16.719 16.586 16.9966 16.3224C17.0294 16.2905 17.0619 16.2591 17.0939 16.228Z" fill="#1D1F1F"/>
</svg>
